<?xml version="1.0" standalone="no"?>
<!DOCTYPE svg PUBLIC "-//W3C//DTD SVG 20010904//EN"
 "http://www.w3.org/TR/2001/REC-SVG-20010904/DTD/svg10.dtd">
<svg version="1.0" xmlns="http://www.w3.org/2000/svg"
 width="225.000000pt" height="258.000000pt" viewBox="0 0 225.000000 258.000000"
 preserveAspectRatio="xMidYMid meet">

<g transform="translate(0.000000,258.000000) scale(0.100000,-0.100000)"
fill="#FFFFFF" stroke="none">
<path d="M400 2401 c-86 -27 -147 -80 -182 -158 -17 -40 -19 -76 -18 -584 0
-298 3 -545 6 -550 3 -5 61 -9 128 -9 135 0 158 8 136 49 -10 19 -20 21 -111
21 l-100 0 3 508 3 507 25 45 c14 24 45 58 68 75 l44 30 551 3 c381 2 564 0
590 -8 44 -13 101 -60 125 -104 15 -28 17 -98 22 -755 5 -661 6 -725 22 -734
12 -8 21 -7 32 2 14 12 16 88 16 720 0 813 3 777 -83 866 -85 87 -70 85 -706
84 -300 0 -557 -4 -571 -8z"/>
<path d="M1012 2230 c-35 -9 -71 -25 -80 -33 -9 -9 -36 -33 -60 -53 -24 -21
-53 -56 -64 -78 -11 -23 -25 -43 -29 -47 -5 -3 -12 -26 -15 -52 -6 -39 -4 -47
10 -47 9 0 53 -13 99 -28 116 -40 148 -31 212 64 14 20 25 47 25 59 0 30 47
79 91 95 46 17 104 6 136 -26 13 -13 28 -24 32 -24 21 0 28 -97 9 -122 -26
-31 -86 -68 -112 -68 -29 0 -101 -43 -110 -66 -3 -8 -12 -14 -20 -14 -9 0 -19
-14 -24 -32 -9 -35 -61 -78 -93 -78 -34 0 -70 20 -86 48 -12 20 -34 35 -80 51
-34 13 -63 27 -63 32 0 5 -4 9 -10 9 -5 0 -10 -7 -10 -15 0 -8 4 -15 8 -15 5
0 17 -18 27 -40 10 -22 39 -59 64 -81 25 -22 54 -47 63 -56 21 -19 148 -53
198 -53 60 1 168 35 196 64 15 14 32 26 38 26 19 0 83 81 97 124 7 22 17 44
22 47 5 4 9 41 9 84 0 43 -4 80 -9 84 -5 3 -15 25 -22 47 -14 43 -78 124 -97
124 -6 0 -23 12 -38 26 -30 31 -139 64 -206 63 -25 -1 -73 -9 -108 -19z"/>
<path d="M440 2155 c-19 -23 -2 -48 41 -56 18 -4 42 -17 51 -29 17 -21 18 -72
18 -844 0 -942 -4 -891 83 -981 86 -88 70 -86 723 -83 l559 3 51 27 c58 30 98
73 125 133 26 56 28 319 3 329 -9 3 -276 6 -594 6 -661 0 -600 9 -600 -93 0
-62 -15 -82 -74 -98 -32 -9 -37 -14 -34 -37 3 -23 8 -27 38 -30 71 -5 140 66
140 146 l0 42 538 -2 537 -3 0 -100 c-1 -87 -4 -106 -25 -145 -14 -24 -45 -58
-68 -75 l-44 -30 -551 -3 c-381 -2 -564 0 -590 8 -49 14 -106 65 -128 115 -17
38 -19 89 -19 868 0 914 3 872 -62 918 -40 29 -100 36 -118 14z"/>
<path d="M1205 2068 c-51 -29 -62 -99 -22 -136 34 -32 100 -30 132 3 69 68
-25 181 -110 133z m92 -30 c13 -12 23 -32 23 -45 0 -27 -41 -73 -65 -73 -20 0
-57 19 -67 34 -15 22 -8 66 14 86 28 26 66 26 95 -2z"/>
<path d="M1026 1838 c24 -8 33 -18 38 -40 11 -54 -30 -91 -74 -68 -25 13 -42
4 -20 -10 29 -19 88 -12 104 12 37 52 8 119 -50 117 l-29 -1 31 -10z"/>
<path d="M799 1394 c-9 -11 -10 -20 -2 -32 9 -15 44 -17 358 -17 314 0 349 2
358 17 8 12 7 21 -2 32 -12 14 -56 16 -356 16 -300 0 -344 -2 -356 -16z"/>
<path d="M799 1144 c-9 -11 -10 -20 -2 -32 9 -15 44 -17 358 -17 314 0 349 2
358 17 8 12 7 21 -2 32 -12 14 -56 16 -356 16 -300 0 -344 -2 -356 -16z"/>
<path d="M800 895 c-6 -8 -9 -23 -5 -35 6 -20 12 -20 360 -20 348 0 354 0 360
20 15 49 7 50 -360 50 -287 0 -344 -2 -355 -15z"/>
</g>
</svg>
